<svg xmlns="http://www.w3.org/2000/svg" viewBox="0 0 100 100">
  <rect width="100" height="100" rx="18" fill="#131110"/>
  <circle cx="50" cy="50" r="38" fill="none" stroke="#efe7db" stroke-width="5"/>
  <g stroke-width="4" fill="none">
    <path d="M50 50 L50 18 A32 32 0 0 1 77.7 34 Z" stroke="#f25c2a"/>
    <path d="M50 50 L77.7 34 A32 32 0 0 1 77.7 66 Z" stroke="#9fc0cf"/>
    <path d="M50 50 L77.7 66 A32 32 0 0 1 50 82 Z" stroke="#f25c2a"/>
    <path d="M50 50 L50 82 A32 32 0 0 1 22.3 66 Z" stroke="#9fc0cf"/>
    <path d="M50 50 L22.3 66 A32 32 0 0 1 22.3 34 Z" stroke="#f25c2a"/>
    <path d="M50 50 L22.3 34 A32 32 0 0 1 50 18 Z" stroke="#9fc0cf"/>
  </g>
</svg>
